<?xml version="1.0" encoding="UTF-8" standalone="no"?>
<svg width="762px" height="182px" viewBox="0 0 762 182" version="1.1" xmlns="http://www.w3.org/2000/svg" xmlns:xlink="http://www.w3.org/1999/xlink" xmlns:sketch="http://www.bohemiancoding.com/sketch/ns">
    <!-- Generator: Sketch 3.1 (8751) - http://www.bohemiancoding.com/sketch -->
    <title>Imported Layers</title>
    <desc>Created with Sketch.</desc>
    <defs>
        <path id="path-1" d="M181.509,90.992 C181.509,141.065 140.916,181.658 90.842,181.658 C40.769,181.658 0.176,141.065 0.176,90.992 C0.176,40.918 40.769,0.326 90.842,0.326 C140.916,0.326 181.509,40.918 181.509,90.992"></path>
    </defs>
    <g id="Page-2" stroke="none" stroke-width="1" fill="none" fill-rule="evenodd" sketch:type="MSPage">
        <g id="Imported-Layers" sketch:type="MSLayerGroup">
            <g id="Group-6">
                <mask id="mask-2" sketch:name="Clip 2" fill="white">
                    <use xlink:href="#path-1"></use>
                </mask>
                <g id="Clip-2"></g>
                <path d="M181.509,90.992 C181.509,141.065 140.916,181.658 90.842,181.658 C40.769,181.658 0.176,141.065 0.176,90.992 C0.176,40.918 40.769,0.326 90.842,0.326 C140.916,0.326 181.509,40.918 181.509,90.992" id="Fill-1" fill="#00C8AA" sketch:type="MSShapeGroup" mask="url(#mask-2)"></path>
                <path d="M109.414,2.471 L60.937,92.381 L163.083,48.389 L53.065,100.254 L109.414,2.471" id="Fill-3" fill="#EFEFEF" sketch:type="MSShapeGroup" mask="url(#mask-2)"></path>
                <path d="M132.617,85.407 L125.753,174.526 L137.589,83.128 L132.617,85.407" id="Fill-4" fill="#EFEFEF" sketch:type="MSShapeGroup" mask="url(#mask-2)"></path>
                <path d="M133.836,-39.353 C127.986,-28.629 -17.274,156.603 -17.274,156.603 L137.589,83.128 L113.834,261.568 L163.083,48.389 L53.065,100.254 L133.836,-39.353" id="Fill-5" fill="#FFFFFF" sketch:type="MSShapeGroup" mask="url(#mask-2)"></path>
            </g>
            <path d="M294.15,149 L217,149 L217,141.8 L273.249,58.1 L222.15,58.1 L222.15,44 L300.249,44 L300.249,50.6 L244.75,134.9 L294.15,134.9 L294.15,149" id="Fill-7" fill="#707070" sketch:type="MSShapeGroup"></path>
            <path d="M375.15,149 L317.048,149 L317.048,44 L373.749,44 L373.749,58.1 L338.199,58.1 L338.199,86.75 L372.999,86.75 L372.999,101.15 L338.199,101.15 L338.199,134.9 L375.15,134.9 L375.15,149" id="Fill-8" fill="#707070" sketch:type="MSShapeGroup"></path>
            <path d="M468.992,145.95 L447.15,150 L431.014,106.4 L418.447,106.4 L418.447,149 L397.296,149 L397.296,44 L428.046,44 C434.746,44 439.646,44.251 442.747,44.75 C448.246,45.552 452.796,47.251 456.397,49.85 C463.496,55.051 467.046,62.551 467.046,72.35 C467.046,85.051 460.946,94.951 448.747,102.05 L468.992,145.95 L468.992,145.95 Z M445.897,73.85 C445.897,67.55 443.968,63.05 440.11,60.35 C437.438,58.452 432.889,57.5 426.46,57.5 L418.447,57.5 L418.447,93.35 L424.679,93.35 C432.195,93.35 437.612,91.625 440.925,88.175 C444.24,84.725 445.897,79.951 445.897,73.85 L445.897,73.85 Z" id="Fill-9" fill="#707070" sketch:type="MSShapeGroup"></path>
            <path d="M582.15,95.45 C582.15,111.252 577.399,124.351 567.9,134.75 C558.199,145.451 545.498,150.8 529.799,150.8 C514.2,150.8 501.498,145.501 491.7,134.9 C482.198,124.602 477.45,111.552 477.45,95.75 C477.45,80.052 482.449,67.201 492.45,57.2 C502.448,47.202 515.25,42.2 530.849,42.2 C545.449,42.2 557.648,47.276 567.45,57.425 C577.248,67.576 582.15,80.251 582.15,95.45 L582.15,95.45 Z M559.5,96.8 C559.5,84.301 556.823,74.551 551.474,67.55 C546.123,60.552 538.748,57.05 529.349,57.05 C519.548,57.05 511.998,61.351 506.7,69.95 C502.2,77.251 499.95,86.101 499.95,96.5 C499.95,107.202 502.2,116.101 506.7,123.2 C512.099,131.701 519.798,135.95 529.799,135.95 C538.898,135.95 546.123,132.425 551.474,125.375 C556.823,118.325 559.5,108.8 559.5,96.8 L559.5,96.8 Z" id="Fill-10" fill="#707070" sketch:type="MSShapeGroup"></path>
            <path d="M629.945,138.95 C629.945,142.151 628.843,144.826 626.645,146.975 C624.444,149.124 621.745,150.2 618.545,150.2 C615.343,150.2 612.643,149.124 610.445,146.975 C608.245,144.826 607.145,142.201 607.145,139.1 C607.145,135.601 608.245,132.776 610.445,130.625 C612.643,128.476 615.494,127.4 618.995,127.4 C622.093,127.4 624.695,128.525 626.795,130.775 C628.895,133.025 629.945,135.751 629.945,138.95" id="Fill-11" fill="#00C8AA" sketch:type="MSShapeGroup"></path>
            <path d="M675.693,136.55 C675.693,143.15 675.492,147.751 675.093,150.35 C674.493,154.948 673.042,159.2 670.743,163.1 C665.042,172.7 657.349,180.45 645.15,180.45 L645.15,168 C649.881,166.399 651.583,161.023 652.766,157.775 C653.95,154.524 654.542,147.2 654.542,135.8 L654.542,44 L675.693,44 L675.693,136.55" id="Fill-12" fill="#00C8AA" sketch:type="MSShapeGroup"></path>
            <path d="M761.191,121.4 C761.191,130.002 757.791,137.052 750.991,142.55 C744.19,148.051 735.391,150.8 724.591,150.8 C713.191,150.8 702.79,147.5 693.391,140.9 L701.341,128.3 C708.741,133.901 715.94,136.7 722.941,136.7 C727.839,136.7 731.84,135.425 734.941,132.875 C738.04,130.325 739.591,126.95 739.591,122.75 C739.591,117.751 735.741,111.8 728.042,104.9 C724.441,101.701 718.839,97.051 711.241,90.95 C702.542,84.05 698.191,76.501 698.191,68.3 C698.191,60.601 701.365,54.327 707.716,49.475 C714.065,44.626 722.191,42.2 732.091,42.2 C741.691,42.2 750.59,45.05 758.792,50.75 L750.691,62.3 C744.79,58.302 739.141,56.3 733.741,56.3 C729.639,56.3 726.366,57.301 723.917,59.3 C721.464,61.302 720.241,63.95 720.241,67.25 C720.241,71.251 723.44,75.95 729.841,81.35 C732.14,83.251 737.541,87.751 746.042,94.85 C756.14,103.051 761.191,111.901 761.191,121.4" id="Fill-13" fill="#00C8AA" sketch:type="MSShapeGroup"></path>
        </g>
    </g>
</svg>